<mxfile host="app.diagrams.net" modified="2021-09-24T15:18:51.563Z" agent="5.0 (Windows NT 10.0) AppleWebKit/537.36 (KHTML, like Gecko) Chrome/93.0.4577.82 Safari/537.36" etag="zgJT_iFPWm78IJp3iUUD" version="15.3.1" type="github">
  <diagram id="C5RBs43oDa-KdzZeNtuy" name="Page-1">
    <mxGraphModel dx="999" dy="332" grid="0" gridSize="12" guides="1" tooltips="1" connect="1" arrows="1" fold="1" page="0" pageScale="1" pageWidth="827" pageHeight="1169" math="0" shadow="0">
      <root>
        <mxCell id="WIyWlLk6GJQsqaUBKTNV-0" />
        <mxCell id="WIyWlLk6GJQsqaUBKTNV-1" parent="WIyWlLk6GJQsqaUBKTNV-0" />
        <mxCell id="O38_-_C2kokAEw32ba-Q-0" value="Product" style="swimlane;fontStyle=1;align=center;verticalAlign=top;childLayout=stackLayout;horizontal=1;startSize=26;horizontalStack=0;resizeParent=1;resizeParentMax=0;resizeLast=0;collapsible=1;marginBottom=0;" parent="WIyWlLk6GJQsqaUBKTNV-1" vertex="1">
          <mxGeometry x="-38" y="218" width="171" height="210" as="geometry">
            <mxRectangle x="130" y="180" width="100" height="26" as="alternateBounds" />
          </mxGeometry>
        </mxCell>
        <mxCell id="O38_-_C2kokAEw32ba-Q-1" value="+ id: int&#xa;+ name: String&#xa;+ category: String&#xa;+ salesPrice: floatÂ &#xa;+ cost: float&#xa;+ quantity: int&#xa;+ active: boolean" style="text;strokeColor=none;fillColor=none;align=left;verticalAlign=top;spacingLeft=4;spacingRight=4;overflow=hidden;rotatable=0;points=[[0,0.5],[1,0.5]];portConstraint=eastwest;" parent="O38_-_C2kokAEw32ba-Q-0" vertex="1">
          <mxGeometry y="26" width="171" height="104" as="geometry" />
        </mxCell>
        <mxCell id="O38_-_C2kokAEw32ba-Q-2" value="" style="line;strokeWidth=1;fillColor=none;align=left;verticalAlign=middle;spacingTop=-1;spacingLeft=3;spacingRight=3;rotatable=0;labelPosition=right;points=[];portConstraint=eastwest;" parent="O38_-_C2kokAEw32ba-Q-0" vertex="1">
          <mxGeometry y="130" width="171" height="8" as="geometry" />
        </mxCell>
        <mxCell id="O38_-_C2kokAEw32ba-Q-3" value="+ getProfitOrLoss(): float&#xa;+ active(): void&#xa;+ deactive(): void&#xa;+ isBelowThreshold(): boolean" style="text;strokeColor=none;fillColor=none;align=left;verticalAlign=top;spacingLeft=4;spacingRight=4;overflow=hidden;rotatable=0;points=[[0,0.5],[1,0.5]];portConstraint=eastwest;" parent="O38_-_C2kokAEw32ba-Q-0" vertex="1">
          <mxGeometry y="138" width="171" height="72" as="geometry" />
        </mxCell>
        <mxCell id="UkyT9EkfcvSTCDTLUkNc-0" value="Order" style="swimlane;fontStyle=1;align=center;verticalAlign=top;childLayout=stackLayout;horizontal=1;startSize=26;horizontalStack=0;resizeParent=1;resizeParentMax=0;resizeLast=0;collapsible=1;marginBottom=0;" parent="WIyWlLk6GJQsqaUBKTNV-1" vertex="1">
          <mxGeometry x="215" y="220" width="160" height="154" as="geometry" />
        </mxCell>
        <mxCell id="UkyT9EkfcvSTCDTLUkNc-2" value="" style="line;strokeWidth=1;fillColor=none;align=left;verticalAlign=middle;spacingTop=-1;spacingLeft=3;spacingRight=3;rotatable=0;labelPosition=right;points=[];portConstraint=eastwest;" parent="UkyT9EkfcvSTCDTLUkNc-0" vertex="1">
          <mxGeometry y="26" width="160" height="8" as="geometry" />
        </mxCell>
        <mxCell id="UkyT9EkfcvSTCDTLUkNc-1" value="+ id: int&#xa;+ vendor: Vendor&#xa;+ date: String&#xa;+ orderedProduct: Product&#xa;+ orderedQuantity: int&#xa;+ amountPaid: float" style="text;strokeColor=none;fillColor=none;align=left;verticalAlign=top;spacingLeft=4;spacingRight=4;overflow=hidden;rotatable=0;points=[[0,0.5],[1,0.5]];portConstraint=eastwest;" parent="UkyT9EkfcvSTCDTLUkNc-0" vertex="1">
          <mxGeometry y="34" width="160" height="94" as="geometry" />
        </mxCell>
        <mxCell id="UkyT9EkfcvSTCDTLUkNc-3" value="- updateVendorCredit(): void" style="text;strokeColor=none;fillColor=none;align=left;verticalAlign=top;spacingLeft=4;spacingRight=4;overflow=hidden;rotatable=0;points=[[0,0.5],[1,0.5]];portConstraint=eastwest;" parent="UkyT9EkfcvSTCDTLUkNc-0" vertex="1">
          <mxGeometry y="128" width="160" height="26" as="geometry" />
        </mxCell>
        <mxCell id="UkyT9EkfcvSTCDTLUkNc-4" value="Vendor" style="swimlane;fontStyle=1;align=center;verticalAlign=top;childLayout=stackLayout;horizontal=1;startSize=26;horizontalStack=0;resizeParent=1;resizeParentMax=0;resizeLast=0;collapsible=1;marginBottom=0;" parent="WIyWlLk6GJQsqaUBKTNV-1" vertex="1">
          <mxGeometry x="439" y="279" width="210" height="150" as="geometry" />
        </mxCell>
        <mxCell id="UkyT9EkfcvSTCDTLUkNc-5" value="+ vendorName: String&#xa;+ credit: float&#xa;+ products: Product [0..100]&#xa;+ orders: Order [0..100]" style="text;strokeColor=none;fillColor=none;align=left;verticalAlign=top;spacingLeft=4;spacingRight=4;overflow=hidden;rotatable=0;points=[[0,0.5],[1,0.5]];portConstraint=eastwest;" parent="UkyT9EkfcvSTCDTLUkNc-4" vertex="1">
          <mxGeometry y="26" width="210" height="64" as="geometry" />
        </mxCell>
        <mxCell id="UkyT9EkfcvSTCDTLUkNc-6" value="" style="line;strokeWidth=1;fillColor=none;align=left;verticalAlign=middle;spacingTop=-1;spacingLeft=3;spacingRight=3;rotatable=0;labelPosition=right;points=[];portConstraint=eastwest;" parent="UkyT9EkfcvSTCDTLUkNc-4" vertex="1">
          <mxGeometry y="90" width="210" height="8" as="geometry" />
        </mxCell>
        <mxCell id="UkyT9EkfcvSTCDTLUkNc-7" value="+ checkDue(): float&#xa;+ fetchProductById(id: int): Product&#xa;+ fetchProductByName(name: String): Product" style="text;strokeColor=none;fillColor=none;align=left;verticalAlign=top;spacingLeft=4;spacingRight=4;overflow=hidden;rotatable=0;points=[[0,0.5],[1,0.5]];portConstraint=eastwest;" parent="UkyT9EkfcvSTCDTLUkNc-4" vertex="1">
          <mxGeometry y="98" width="210" height="52" as="geometry" />
        </mxCell>
        <mxCell id="UkyT9EkfcvSTCDTLUkNc-8" value="Customer" style="swimlane;fontStyle=1;align=center;verticalAlign=top;childLayout=stackLayout;horizontal=1;startSize=20;horizontalStack=0;resizeParent=1;resizeParentMax=0;resizeLast=0;collapsible=1;marginBottom=0;" parent="WIyWlLk6GJQsqaUBKTNV-1" vertex="1">
          <mxGeometry x="700" y="280" width="160" height="100" as="geometry" />
        </mxCell>
        <mxCell id="UkyT9EkfcvSTCDTLUkNc-9" value="+ transactionCount: int" style="text;strokeColor=none;fillColor=none;align=left;verticalAlign=top;spacingLeft=4;spacingRight=4;overflow=hidden;rotatable=0;points=[[0,0.5],[1,0.5]];portConstraint=eastwest;" parent="UkyT9EkfcvSTCDTLUkNc-8" vertex="1">
          <mxGeometry y="20" width="160" height="26" as="geometry" />
        </mxCell>
        <mxCell id="UkyT9EkfcvSTCDTLUkNc-10" value="" style="line;strokeWidth=1;fillColor=none;align=left;verticalAlign=middle;spacingTop=-1;spacingLeft=3;spacingRight=3;rotatable=0;labelPosition=right;points=[];portConstraint=eastwest;" parent="UkyT9EkfcvSTCDTLUkNc-8" vertex="1">
          <mxGeometry y="46" width="160" height="8" as="geometry" />
        </mxCell>
        <mxCell id="UkyT9EkfcvSTCDTLUkNc-11" value="+ getTransactionCount(): int&#xa;+ calculateDiscount(): float" style="text;strokeColor=none;fillColor=none;align=left;verticalAlign=top;spacingLeft=4;spacingRight=4;overflow=hidden;rotatable=0;points=[[0,0.5],[1,0.5]];portConstraint=eastwest;" parent="UkyT9EkfcvSTCDTLUkNc-8" vertex="1">
          <mxGeometry y="54" width="160" height="46" as="geometry" />
        </mxCell>
        <mxCell id="70gMzcCKfluxHFbNsh2B-0" value="Address" style="swimlane;fontStyle=1;align=center;verticalAlign=top;childLayout=stackLayout;horizontal=1;startSize=26;horizontalStack=0;resizeParent=1;resizeParentMax=0;resizeLast=0;collapsible=1;marginBottom=0;" vertex="1" parent="WIyWlLk6GJQsqaUBKTNV-1">
          <mxGeometry x="1" y="10" width="290" height="140" as="geometry" />
        </mxCell>
        <mxCell id="70gMzcCKfluxHFbNsh2B-1" value="+ street: String&#xa;+ city: String&#xa;+ state: String" style="text;strokeColor=none;fillColor=none;align=left;verticalAlign=top;spacingLeft=4;spacingRight=4;overflow=hidden;rotatable=0;points=[[0,0.5],[1,0.5]];portConstraint=eastwest;" vertex="1" parent="70gMzcCKfluxHFbNsh2B-0">
          <mxGeometry y="26" width="290" height="64" as="geometry" />
        </mxCell>
        <mxCell id="70gMzcCKfluxHFbNsh2B-2" value="" style="line;strokeWidth=1;fillColor=none;align=left;verticalAlign=middle;spacingTop=-1;spacingLeft=3;spacingRight=3;rotatable=0;labelPosition=right;points=[];portConstraint=eastwest;" vertex="1" parent="70gMzcCKfluxHFbNsh2B-0">
          <mxGeometry y="90" width="290" height="8" as="geometry" />
        </mxCell>
        <mxCell id="70gMzcCKfluxHFbNsh2B-3" value="+ getAddressDetails(): String&#xa;+ updateAddressDetails(addressDetail: String): void" style="text;strokeColor=none;fillColor=none;align=left;verticalAlign=top;spacingLeft=4;spacingRight=4;overflow=hidden;rotatable=0;points=[[0,0.5],[1,0.5]];portConstraint=eastwest;" vertex="1" parent="70gMzcCKfluxHFbNsh2B-0">
          <mxGeometry y="98" width="290" height="42" as="geometry" />
        </mxCell>
        <mxCell id="70gMzcCKfluxHFbNsh2B-4" value="BusinessPartner" style="swimlane;fontStyle=1;align=center;verticalAlign=top;childLayout=stackLayout;horizontal=1;startSize=26;horizontalStack=0;resizeParent=1;resizeParentMax=0;resizeLast=0;collapsible=1;marginBottom=0;" vertex="1" parent="WIyWlLk6GJQsqaUBKTNV-1">
          <mxGeometry x="380" y="10" width="160" height="130" as="geometry" />
        </mxCell>
        <mxCell id="70gMzcCKfluxHFbNsh2B-5" value="+ id: int&#xa;+ address: Address&#xa;+ contact: Contact" style="text;strokeColor=none;fillColor=none;align=left;verticalAlign=top;spacingLeft=4;spacingRight=4;overflow=hidden;rotatable=0;points=[[0,0.5],[1,0.5]];portConstraint=eastwest;" vertex="1" parent="70gMzcCKfluxHFbNsh2B-4">
          <mxGeometry y="26" width="160" height="54" as="geometry" />
        </mxCell>
        <mxCell id="70gMzcCKfluxHFbNsh2B-6" value="" style="line;strokeWidth=1;fillColor=none;align=left;verticalAlign=middle;spacingTop=-1;spacingLeft=3;spacingRight=3;rotatable=0;labelPosition=right;points=[];portConstraint=eastwest;" vertex="1" parent="70gMzcCKfluxHFbNsh2B-4">
          <mxGeometry y="80" width="160" height="8" as="geometry" />
        </mxCell>
        <mxCell id="70gMzcCKfluxHFbNsh2B-7" value="+ getContact(): Contact&#xa;+ getAddress(): Address" style="text;strokeColor=none;fillColor=none;align=left;verticalAlign=top;spacingLeft=4;spacingRight=4;overflow=hidden;rotatable=0;points=[[0,0.5],[1,0.5]];portConstraint=eastwest;" vertex="1" parent="70gMzcCKfluxHFbNsh2B-4">
          <mxGeometry y="88" width="160" height="42" as="geometry" />
        </mxCell>
        <mxCell id="70gMzcCKfluxHFbNsh2B-8" value="Contact" style="swimlane;fontStyle=1;align=center;verticalAlign=top;childLayout=stackLayout;horizontal=1;startSize=26;horizontalStack=0;resizeParent=1;resizeParentMax=0;resizeLast=0;collapsible=1;marginBottom=0;" vertex="1" parent="WIyWlLk6GJQsqaUBKTNV-1">
          <mxGeometry x="644" y="10" width="270" height="120" as="geometry" />
        </mxCell>
        <mxCell id="70gMzcCKfluxHFbNsh2B-9" value="+ name: String&#xa;+ phone: String&#xa;+ email: String" style="text;strokeColor=none;fillColor=none;align=left;verticalAlign=top;spacingLeft=4;spacingRight=4;overflow=hidden;rotatable=0;points=[[0,0.5],[1,0.5]];portConstraint=eastwest;" vertex="1" parent="70gMzcCKfluxHFbNsh2B-8">
          <mxGeometry y="26" width="270" height="44" as="geometry" />
        </mxCell>
        <mxCell id="70gMzcCKfluxHFbNsh2B-10" value="" style="line;strokeWidth=1;fillColor=none;align=left;verticalAlign=middle;spacingTop=-1;spacingLeft=3;spacingRight=3;rotatable=0;labelPosition=right;points=[];portConstraint=eastwest;" vertex="1" parent="70gMzcCKfluxHFbNsh2B-8">
          <mxGeometry y="70" width="270" height="8" as="geometry" />
        </mxCell>
        <mxCell id="70gMzcCKfluxHFbNsh2B-11" value="+ getContactDetails(): String&#xa;+ updateContatDetails(contatDetail: string): voidÂ " style="text;strokeColor=none;fillColor=none;align=left;verticalAlign=top;spacingLeft=4;spacingRight=4;overflow=hidden;rotatable=0;points=[[0,0.5],[1,0.5]];portConstraint=eastwest;" vertex="1" parent="70gMzcCKfluxHFbNsh2B-8">
          <mxGeometry y="78" width="270" height="42" as="geometry" />
        </mxCell>
        <mxCell id="70gMzcCKfluxHFbNsh2B-14" value="" style="endArrow=diamondThin;endFill=1;endSize=24;html=1;exitX=0;exitY=0.25;exitDx=0;exitDy=0;exitPerimeter=0;entryX=1.006;entryY=0.852;entryDx=0;entryDy=0;entryPerimeter=0;" edge="1" parent="WIyWlLk6GJQsqaUBKTNV-1" source="70gMzcCKfluxHFbNsh2B-10" target="70gMzcCKfluxHFbNsh2B-5">
          <mxGeometry width="160" relative="1" as="geometry">
            <mxPoint x="340" y="160" as="sourcePoint" />
            <mxPoint x="500" y="160" as="targetPoint" />
          </mxGeometry>
        </mxCell>
        <mxCell id="70gMzcCKfluxHFbNsh2B-15" value="" style="endArrow=diamondThin;endFill=1;endSize=24;html=1;exitX=0.999;exitY=0.762;exitDx=0;exitDy=0;exitPerimeter=0;entryX=0.001;entryY=0.925;entryDx=0;entryDy=0;entryPerimeter=0;" edge="1" parent="WIyWlLk6GJQsqaUBKTNV-1" source="70gMzcCKfluxHFbNsh2B-1" target="70gMzcCKfluxHFbNsh2B-5">
          <mxGeometry width="160" relative="1" as="geometry">
            <mxPoint x="361" y="152" as="sourcePoint" />
            <mxPoint x="375" y="85" as="targetPoint" />
          </mxGeometry>
        </mxCell>
        <mxCell id="70gMzcCKfluxHFbNsh2B-16" value="" style="endArrow=diamondThin;endFill=0;endSize=24;html=1;" edge="1" parent="WIyWlLk6GJQsqaUBKTNV-1">
          <mxGeometry width="160" relative="1" as="geometry">
            <mxPoint x="132" y="289" as="sourcePoint" />
            <mxPoint x="215" y="289" as="targetPoint" />
          </mxGeometry>
        </mxCell>
        <mxCell id="70gMzcCKfluxHFbNsh2B-17" value="" style="endArrow=diamondThin;endFill=0;endSize=24;html=1;exitX=1;exitY=0.5;exitDx=0;exitDy=0;entryX=0.004;entryY=0.285;entryDx=0;entryDy=0;entryPerimeter=0;" edge="1" parent="WIyWlLk6GJQsqaUBKTNV-1" source="O38_-_C2kokAEw32ba-Q-3" target="UkyT9EkfcvSTCDTLUkNc-7">
          <mxGeometry width="160" relative="1" as="geometry">
            <mxPoint x="361" y="152" as="sourcePoint" />
            <mxPoint x="521" y="152" as="targetPoint" />
          </mxGeometry>
        </mxCell>
        <mxCell id="70gMzcCKfluxHFbNsh2B-21" value="" style="endArrow=block;dashed=1;endFill=0;endSize=12;html=1;exitX=0.43;exitY=0.007;exitDx=0;exitDy=0;exitPerimeter=0;entryX=0.56;entryY=1.001;entryDx=0;entryDy=0;entryPerimeter=0;" edge="1" parent="WIyWlLk6GJQsqaUBKTNV-1" source="UkyT9EkfcvSTCDTLUkNc-4" target="70gMzcCKfluxHFbNsh2B-7">
          <mxGeometry width="160" relative="1" as="geometry">
            <mxPoint x="361" y="152" as="sourcePoint" />
            <mxPoint x="521" y="152" as="targetPoint" />
          </mxGeometry>
        </mxCell>
        <mxCell id="70gMzcCKfluxHFbNsh2B-22" value="" style="endArrow=block;dashed=1;endFill=0;endSize=12;html=1;exitX=0.42;exitY=-0.023;exitDx=0;exitDy=0;exitPerimeter=0;entryX=0.663;entryY=1.057;entryDx=0;entryDy=0;entryPerimeter=0;" edge="1" parent="WIyWlLk6GJQsqaUBKTNV-1" source="UkyT9EkfcvSTCDTLUkNc-8" target="70gMzcCKfluxHFbNsh2B-7">
          <mxGeometry width="160" relative="1" as="geometry">
            <mxPoint x="361" y="152" as="sourcePoint" />
            <mxPoint x="521" y="152" as="targetPoint" />
          </mxGeometry>
        </mxCell>
        <mxCell id="70gMzcCKfluxHFbNsh2B-30" value="" style="endArrow=none;html=1;rounded=0;exitX=1;exitY=0.5;exitDx=0;exitDy=0;entryX=0.011;entryY=-0.022;entryDx=0;entryDy=0;entryPerimeter=0;" edge="1" parent="WIyWlLk6GJQsqaUBKTNV-1" source="UkyT9EkfcvSTCDTLUkNc-1" target="UkyT9EkfcvSTCDTLUkNc-5">
          <mxGeometry relative="1" as="geometry">
            <mxPoint x="361" y="152" as="sourcePoint" />
            <mxPoint x="427" y="351" as="targetPoint" />
          </mxGeometry>
        </mxCell>
        <mxCell id="70gMzcCKfluxHFbNsh2B-31" value="" style="endArrow=none;html=1;rounded=0;dashed=1;dashPattern=1 2;exitX=1;exitY=0.5;exitDx=0;exitDy=0;entryX=0.017;entryY=-0.022;entryDx=0;entryDy=0;entryPerimeter=0;" edge="1" parent="WIyWlLk6GJQsqaUBKTNV-1" source="UkyT9EkfcvSTCDTLUkNc-1" target="UkyT9EkfcvSTCDTLUkNc-5">
          <mxGeometry relative="1" as="geometry">
            <mxPoint x="361" y="152" as="sourcePoint" />
            <mxPoint x="521" y="152" as="targetPoint" />
          </mxGeometry>
        </mxCell>
        <mxCell id="70gMzcCKfluxHFbNsh2B-32" value="1" style="resizable=0;html=1;align=right;verticalAlign=bottom;" connectable="0" vertex="1" parent="70gMzcCKfluxHFbNsh2B-31">
          <mxGeometry x="1" relative="1" as="geometry" />
        </mxCell>
        <mxCell id="70gMzcCKfluxHFbNsh2B-33" value="" style="endArrow=none;html=1;rounded=0;" edge="1" parent="WIyWlLk6GJQsqaUBKTNV-1">
          <mxGeometry relative="1" as="geometry">
            <mxPoint x="133" y="288" as="sourcePoint" />
            <mxPoint x="191" y="288" as="targetPoint" />
          </mxGeometry>
        </mxCell>
        <mxCell id="70gMzcCKfluxHFbNsh2B-34" value="1" style="resizable=0;html=1;align=right;verticalAlign=bottom;" connectable="0" vertex="1" parent="70gMzcCKfluxHFbNsh2B-33">
          <mxGeometry x="1" relative="1" as="geometry" />
        </mxCell>
        <mxCell id="70gMzcCKfluxHFbNsh2B-42" value="" style="endArrow=none;html=1;rounded=0;dashed=1;dashPattern=1 2;" edge="1" parent="WIyWlLk6GJQsqaUBKTNV-1">
          <mxGeometry relative="1" as="geometry">
            <mxPoint x="190" y="288" as="sourcePoint" />
            <mxPoint x="140" y="288" as="targetPoint" />
          </mxGeometry>
        </mxCell>
        <mxCell id="70gMzcCKfluxHFbNsh2B-43" value="1" style="resizable=0;html=1;align=right;verticalAlign=bottom;" connectable="0" vertex="1" parent="70gMzcCKfluxHFbNsh2B-42">
          <mxGeometry x="1" relative="1" as="geometry" />
        </mxCell>
      </root>
    </mxGraphModel>
  </diagram>
</mxfile>
